<?xml version="1.0" encoding="UTF-8" standalone="no"?>
<!-- Created with Inkscape (http://www.inkscape.org/) -->

<svg
   width="92.0px"
   height="92.0px"
   viewBox="0 0 92.0 92.0"
   version="1.1"
   id="SVGRoot"
   xmlns="http://www.w3.org/2000/svg"
   xmlns:svg="http://www.w3.org/2000/svg">
  <defs
     id="defs14520" />
  <g
     id="layer1">
    <g
       id="g15764"
       transform="matrix(0.92713277,0,0,0.93927731,-0.3566385,-0.9638655)">
      <g
         id="g15746">
        <path
           d="M 7.1,67 C 5.9,67 5,66.1 5,64.9 V 35.1 C 5,33.9 5.9,33 7.1,33 c 1.2,0 2.1,0.9 2.1,2.1 V 64.9 C 9.2,66.1 8.3,67 7.1,67 Z"
           id="path15744" />
      </g>
      <g
         id="g15750">
        <path
           d="m 92.9,67 c -1.2,0 -2.1,-0.9 -2.1,-2.1 V 35.1 c 0,-1.2 0.9,-2.1 2.1,-2.1 1.2,0 2.1,0.9 2.1,2.1 v 29.8 c 0,1.2 -0.9,2.1 -2.1,2.1 z"
           id="path15748" />
      </g>
      <g
         id="g15754">
        <path
           d="m 25.4,83.7 c -1.2,0 -2.1,-0.9 -2.1,-2.1 V 18.4 c 0,-1.2 0.9,-2.1 2.1,-2.1 1.2,0 2.1,0.9 2.1,2.1 v 63.3 c 0,1.1 -0.9,2 -2.1,2 z"
           id="path15752" />
      </g>
      <g
         id="g15758">
        <path
           d="m 74.6,83.7 c -1.2,0 -2.1,-0.9 -2.1,-2.1 V 18.4 c 0,-1.2 0.9,-2.1 2.1,-2.1 1.2,0 2.1,0.9 2.1,2.1 v 63.3 c 0,1.1 -0.9,2 -2.1,2 z"
           id="path15756" />
      </g>
      <g
         id="g15762">
        <path
           d="m 50,95 c -1.2,0 -2.1,-0.9 -2.1,-2.1 V 7.1 C 47.9,6 48.8,5 50,5 c 1.2,0 2.1,0.9 2.1,2.1 V 92.9 C 52.1,94 51.2,95 50,95 Z"
           id="path15760" />
      </g>
    </g>
  </g>
</svg>
