<?xml version="1.0" encoding="UTF-8" standalone="no"?>
<!-- Created with Inkscape (http://www.inkscape.org/) -->

<svg
   width="92.0px"
   height="92.0px"
   viewBox="0 0 92.0 92.0"
   version="1.1"
   id="SVGRoot"
   sodipodi:docname="audio.svg"
   inkscape:version="1.2.2 (b0a8486541, 2022-12-01)"
   xmlns:inkscape="http://www.inkscape.org/namespaces/inkscape"
   xmlns:sodipodi="http://sodipodi.sourceforge.net/DTD/sodipodi-0.dtd"
   xmlns="http://www.w3.org/2000/svg"
   xmlns:svg="http://www.w3.org/2000/svg">
  <sodipodi:namedview
     id="namedview16"
     pagecolor="#292929"
     bordercolor="#000000"
     borderopacity="0.24705882"
     inkscape:showpageshadow="2"
     inkscape:pageopacity="0.01568627"
     inkscape:pagecheckerboard="0"
     inkscape:deskcolor="#323232"
     showgrid="false"
     inkscape:zoom="11.163043"
     inkscape:cx="46.716652"
     inkscape:cy="47.164559"
     inkscape:window-width="2518"
     inkscape:window-height="1416"
     inkscape:window-x="42"
     inkscape:window-y="0"
     inkscape:window-maximized="1"
     inkscape:current-layer="SVGRoot" />
  <defs
     id="defs14520" />
  <g
     id="layer1"
     style="fill:#ffffff;stroke:#ffffff">
    <g
       id="g15764"
       transform="matrix(0.92713277,0,0,0.93927731,-0.3566385,-0.9638655)"
       style="fill:#ffffff;stroke:#ffffff">
      <g
         id="g15746"
         style="fill:#ffffff;stroke:#ffffff">
        <path
           d="M 7.1,67 C 5.9,67 5,66.1 5,64.9 V 35.1 C 5,33.9 5.9,33 7.1,33 c 1.2,0 2.1,0.9 2.1,2.1 V 64.9 C 9.2,66.1 8.3,67 7.1,67 Z"
           id="path15744"
           style="fill:#ffffff;stroke:#ffffff" />
      </g>
      <g
         id="g15750"
         style="fill:#ffffff;stroke:#ffffff">
        <path
           d="m 92.9,67 c -1.2,0 -2.1,-0.9 -2.1,-2.1 V 35.1 c 0,-1.2 0.9,-2.1 2.1,-2.1 1.2,0 2.1,0.9 2.1,2.1 v 29.8 c 0,1.2 -0.9,2.1 -2.1,2.1 z"
           id="path15748"
           style="fill:#ffffff;stroke:#ffffff" />
      </g>
      <g
         id="g15754"
         style="fill:#ffffff;stroke:#ffffff">
        <path
           d="m 25.4,83.7 c -1.2,0 -2.1,-0.9 -2.1,-2.1 V 18.4 c 0,-1.2 0.9,-2.1 2.1,-2.1 1.2,0 2.1,0.9 2.1,2.1 v 63.3 c 0,1.1 -0.9,2 -2.1,2 z"
           id="path15752"
           style="fill:#ffffff;stroke:#ffffff" />
      </g>
      <g
         id="g15758"
         style="fill:#ffffff;stroke:#ffffff">
        <path
           d="m 74.6,83.7 c -1.2,0 -2.1,-0.9 -2.1,-2.1 V 18.4 c 0,-1.2 0.9,-2.1 2.1,-2.1 1.2,0 2.1,0.9 2.1,2.1 v 63.3 c 0,1.1 -0.9,2 -2.1,2 z"
           id="path15756"
           style="fill:#ffffff;stroke:#ffffff" />
      </g>
      <g
         id="g15762"
         style="fill:#ffffff;stroke:#ffffff">
        <path
           d="m 50,95 c -1.2,0 -2.1,-0.9 -2.1,-2.1 V 7.1 C 47.9,6 48.8,5 50,5 c 1.2,0 2.1,0.9 2.1,2.1 V 92.9 C 52.1,94 51.2,95 50,95 Z"
           id="path15760"
           style="fill:#ffffff;stroke:#ffffff" />
      </g>
    </g>
  </g>
</svg>
