<!DOCTYPE svg PUBLIC "-//W3C//DTD SVG 1.1//EN" "http://www.w3.org/Graphics/SVG/1.1/DTD/svg11.dtd">
<!-- Uploaded to: SVG Repo, www.svgrepo.com, Transformed by: SVG Repo Mixer Tools -->
<svg fill="#ffffff" height="800px" width="800px" version="1.1" id="Capa_1" xmlns="http://www.w3.org/2000/svg" xmlns:xlink="http://www.w3.org/1999/xlink" viewBox="0 0 489.4 489.4" xml:space="preserve" style="--darkreader-inline-fill: #181a1b;" data-darkreader-inline-fill="">
<g id="SVGRepo_bgCarrier" stroke-width="0"/>
<g id="SVGRepo_tracerCarrier" stroke-linecap="round" stroke-linejoin="round"/>
<g id="SVGRepo_iconCarrier"> <g> <g> <g> <path d="M119.3,336.4h69.8l98.5,46.9c5.5,3.9,28.6,3.9,28.6-17.3V183.4c0-19.8-20.1-23.4-28.6-18.4l-96.5,46 c-0.5,0-71.8-0.1-71.8-0.1c-11.2,0-20.4,9.2-20.4,20.4V316C98.9,327.2,108.1,336.4,119.3,336.4z M210.1,246.6l66.3-31.6v117.3 l-66.3-31.6L210.1,246.6L210.1,246.6z M139.7,251.7h29.6v43.9h-29.6V251.7z"/> <path d="M341.7,342.5c12.6,10.7,24.5,4.1,27.5,1c18.4-18.4,29.6-41.8,29.6-68.3s-9.2-51-27.5-69.4c-7.1-7.1-20.4-8.2-28.6,0 c-7.1,7.1-8.2,20.4,0,28.6c22.4,22.4,21.4,58.1-1,79.6C334.5,321.1,332.9,335,341.7,342.5z"/> <path d="M453,104c0.6-10-7.1-17-10.5-20.4c-5.1-4.1-29.6-28.1,3.1-47.9c7.1-5.1,9.2-14.3,6.1-22.4S440.5,0,432.3,0H98.9 C64.2,0,35.7,27.5,35.7,62.2c0,0.2,0,349.7,0,349.7c0,42.8,34.7,77.5,78.5,77.5h319.1c11.2,0,20.4-9.2,20.4-20.4 C453.7,469,453.4,105.6,453,104z M98.9,40.8h293.7c-7.9,10.6-7,29.8,0,42.8H98.9c-12.2,0-22.4-9.2-22.4-21.4 C76.4,50,86.6,40.8,98.9,40.8z M412.9,448.6H114.1c-20.4,0-37.7-16.3-37.7-36.7V120.2c7,2.7,14.5,4.2,22.4,4.2h314v324.2H412.9z"/> </g> </g> </g> </g>
</svg>