<?xml version="1.0" encoding="UTF-8" standalone="no"?>
<!-- Created with Inkscape (http://www.inkscape.org/) -->

<svg
   width="92.0px"
   height="92.0px"
   viewBox="0 0 92.0 92.0"
   version="1.1"
   id="SVGRoot"
   sodipodi:docname="cards.svg"
   inkscape:version="1.2.2 (b0a8486541, 2022-12-01)"
   xmlns:inkscape="http://www.inkscape.org/namespaces/inkscape"
   xmlns:sodipodi="http://sodipodi.sourceforge.net/DTD/sodipodi-0.dtd"
   xmlns="http://www.w3.org/2000/svg"
   xmlns:svg="http://www.w3.org/2000/svg">
  <sodipodi:namedview
     id="namedview10"
     pagecolor="#212121"
     bordercolor="#000000"
     borderopacity="0.25"
     inkscape:showpageshadow="2"
     inkscape:pageopacity="0"
     inkscape:pagecheckerboard="0"
     inkscape:deskcolor="#151515"
     showgrid="false"
     inkscape:zoom="8.076087"
     inkscape:cx="46.123822"
     inkscape:cy="46.123822"
     inkscape:window-width="2518"
     inkscape:window-height="1416"
     inkscape:window-x="42"
     inkscape:window-y="0"
     inkscape:window-maximized="1"
     inkscape:current-layer="SVGRoot" />
  <defs
     id="defs3883" />
  <g
     id="layer1"
     style="fill:#ffffff;stroke:#ffffff">
    <g
       data-name="Group"
       id="g863"
       transform="matrix(1.0564862,0,0,1.0421469,-6.82431,-6.107345)"
       style="fill:#ffffff;stroke:#ffffff">
      <path
         data-name="Path"
         d="M 54.2,39 H 25.8 a 1,1 0 1 0 0,2 h 28.4 a 1,1 0 0 0 0,-2 z"
         id="path855"
         style="fill:#ffffff;stroke:#ffffff" />
      <path
         data-name="Path"
         d="M 54.2,27 H 25.8 a 1,1 0 0 0 0,2 h 28.4 a 1,1 0 0 0 0,-2 z"
         id="path857"
         style="fill:#ffffff;stroke:#ffffff" />
      <path
         data-name="Path"
         d="M 54.2,51 H 25.8 a 1,1 0 1 0 0,2 h 28.4 a 1,1 0 0 0 0,-2 z"
         id="path859"
         style="fill:#ffffff;stroke:#ffffff" />
      <path
         data-name="Compound Path"
         d="m 40.3,88.9 h 39.4 a 9,9 0 0 0 9,-9 V 40.1 a 9,9 0 0 0 -9,-9 h -11 v -11 a 9,9 0 0 0 -9,-9 H 20.3 a 9,9 0 0 0 -9,9 v 39.8 a 9,9 0 0 0 9,9 h 11 v 11 a 9,9 0 0 0 9,9 z M 79.7,33.1 a 7,7 0 0 1 7,7 v 39.8 a 7,7 0 0 1 -7,7 H 40.3 a 7,7 0 0 1 -7,-7 v -11 h 26.4 a 9,9 0 0 0 9,-9 V 33.1 Z M 13.3,59.9 V 20.1 a 7,7 0 0 1 7,-7 h 39.4 a 7,7 0 0 1 7,7 v 39.8 a 7,7 0 0 1 -7,7 H 20.3 a 7,7 0 0 1 -7,-7 z"
         id="path861"
         style="fill:#ffffff;stroke:#ffffff" />
    </g>
  </g>
</svg>
