<?xml version="1.0" encoding="UTF-8" standalone="no"?>
<!-- Created with Inkscape (http://www.inkscape.org/) -->

<svg
   width="92.0px"
   height="92.0px"
   viewBox="0 0 92.0 92.0"
   version="1.1"
   id="SVGRoot"
   xmlns="http://www.w3.org/2000/svg"
   xmlns:svg="http://www.w3.org/2000/svg">
  <defs
     id="defs17649" />
  <g
     id="layer1">
    <g
       id="g17238"
       transform="matrix(1.526261,0,0,1.4684237,-2.8401695,-0.98880882)">
      <g
         id="g16725">
        <path
           d="m 20.5,49.357 c -2.899,0 -5.257,-2.358 -5.257,-5.257 0.247,-6.959 10.269,-6.957 10.515,0 0,2.898 -2.358,5.257 -5.257,5.257 z m 0,-8.515 c -4.304,0.137 -4.304,6.378 0,6.515 4.305,-0.137 4.303,-6.378 0,-6.515 z"
           id="path16721" />
        <path
           d="m 23.693,60 h -6.386 c -0.552,0 -1,-0.447 -1,-1 V 56.087 C 14.81,55.564 13.417,54.759 12.215,53.726 L 9.693,55.182 C 9.464,55.314 9.191,55.35 8.934,55.282 8.677,55.214 8.459,55.046 8.327,54.816 L 5.134,49.286 C 4.858,48.807 5.022,48.196 5.5,47.92 l 2.525,-1.457 c -0.309,-1.605 -0.309,-3.118 0,-4.724 L 5.5,40.282 C 5.021,40.006 4.858,39.394 5.134,38.916 l 3.193,-5.53 c 0.133,-0.229 0.351,-0.397 0.607,-0.466 0.257,-0.068 0.53,-0.032 0.759,0.1 l 2.522,1.456 c 1.202,-1.033 2.596,-1.837 4.092,-2.361 v -2.913 c 0,-0.552 0.448,-1 1,-1 h 6.386 c 0.552,0 1,0.448 1,1 v 2.913 c 1.497,0.524 2.89,1.328 4.092,2.361 l 2.522,-1.456 c 0.23,-0.132 0.503,-0.168 0.759,-0.1 0.256,0.068 0.475,0.236 0.607,0.466 l 3.193,5.53 c 0.276,0.479 0.112,1.09 -0.366,1.366 l -2.525,1.457 c 0.309,1.605 0.309,3.118 0,4.724 L 35.5,47.92 c 0.479,0.276 0.643,0.888 0.366,1.366 l -3.193,5.53 c -0.133,0.229 -0.351,0.397 -0.607,0.466 -0.255,0.069 -0.529,0.032 -0.759,-0.1 l -2.522,-1.456 c -1.202,1.033 -2.595,1.838 -4.092,2.361 V 59 c 0,0.553 -0.448,1 -1,1 z m -5.386,-2 h 4.386 v -2.645 c 0,-0.447 0.297,-0.84 0.727,-0.962 1.7,-0.482 3.268,-1.388 4.535,-2.617 0.32,-0.312 0.809,-0.374 1.197,-0.149 l 2.29,1.322 2.193,-3.798 C 29.726,46.921 31.06,48.06 31.208,44.1 31.062,40.128 29.719,41.287 33.635,39.048 l -2.193,-3.798 -2.29,1.322 c -0.387,0.225 -0.876,0.163 -1.197,-0.149 -1.267,-1.23 -2.834,-2.135 -4.534,-2.616 -0.431,-0.122 -0.728,-0.515 -0.728,-0.962 V 30.2 h -4.386 v 2.645 c 0,0.448 -0.297,0.84 -0.728,0.962 -1.7,0.481 -3.268,1.386 -4.534,2.616 -0.32,0.312 -0.81,0.373 -1.197,0.149 L 9.558,35.25 7.365,39.048 c 3.91,2.231 2.575,1.091 2.427,5.052 0.146,3.971 1.489,2.812 -2.427,5.051 l 2.193,3.798 2.29,-1.322 c 0.388,-0.224 0.878,-0.162 1.197,0.149 1.267,1.229 2.834,2.135 4.535,2.617 0.43,0.122 0.727,0.515 0.727,0.962 z"
           id="path16723" />
      </g>
      <g
         id="g16731">
        <path
           d="m 46.352,31.583 c -4.359,0.023 -6,-5.863 -2.173,-8.079 2.067,-1.195 4.722,-0.482 5.916,1.585 1.702,2.772 -0.52,6.576 -3.743,6.494 z M 46.34,24.924 c -1.734,-0.044 -2.931,2.003 -2.014,3.495 1.605,2.621 5.501,0.371 4.036,-2.33 v 0 C 47.931,25.342 47.145,24.924 46.34,24.924 Z"
           id="path16727" />
        <path
           d="m 42.678,39.598 c -0.078,0.253 -4.637,-2.575 -4.825,-2.632 -0.47,-0.26 -0.644,-0.906 -0.366,-1.366 0,0 1.064,-1.842 1.064,-1.842 -0.769,-0.912 -1.33,-1.886 -1.736,-3.006 h -2.127 c -0.553,0 -1,-0.448 -1,-1 v -4.995 c 0,-0.552 0.447,-1 1,-1 h 2.125 c 0.401,-1.092 0.991,-2.113 1.737,-3.007 l -1.063,-1.841 c -0.276,-0.479 -0.112,-1.09 0.366,-1.366 l 4.326,-2.498 c 0.477,-0.276 1.09,-0.112 1.366,0.366 l 1.062,1.841 c 1.146,-0.2 2.325,-0.199 3.474,0 l 1.062,-1.84 c 0.261,-0.47 0.905,-0.645 1.366,-0.366 0,0 4.326,2.498 4.326,2.498 0.479,0.276 0.643,0.888 0.366,1.366 l -1.063,1.842 c 0.77,0.915 1.328,1.883 1.735,3.006 H 58 c 0.553,0 1,0.448 1,1 v 4.995 c 0,0.552 -0.447,1 -1,1 h -2.125 c -0.402,1.093 -0.991,2.114 -1.736,3.007 l 1.062,1.841 c 0.276,0.479 0.112,1.09 -0.366,1.366 l -4.326,2.498 c -0.23,0.132 -0.504,0.167 -0.759,0.1 -0.256,-0.068 -0.475,-0.236 -0.607,-0.466 l -1.062,-1.841 c -1.148,0.198 -2.326,0.197 -3.473,0 l -1.062,1.84 c -0.186,0.321 -0.521,0.5 -0.867,0.5 z m -2.959,-3.864 2.594,1.498 0.926,-1.603 c 0.224,-0.387 0.674,-0.577 1.111,-0.47 1.305,0.331 2.684,0.329 3.988,0 0.432,-0.109 0.888,0.083 1.111,0.47 l 0.926,1.604 2.594,-1.498 -0.926,-1.604 c -0.224,-0.388 -0.163,-0.876 0.149,-1.197 0.938,-0.964 1.628,-2.159 1.995,-3.454 0.122,-0.43 0.515,-0.727 0.962,-0.727 H 57 V 25.758 H 55.146 C 53.899,25.7 54.052,23.924 53.41,23.177 c -0.324,-0.934 -1.934,-1.67 -1.367,-2.794 0,0 0.927,-1.606 0.927,-1.606 l -2.594,-1.498 -0.925,1.603 c -0.224,0.387 -0.672,0.58 -1.111,0.47 -1.304,-0.33 -2.684,-0.33 -3.989,0 -0.438,0.109 -0.888,-0.083 -1.111,-0.47 l -0.926,-1.603 -2.594,1.498 0.926,1.604 c 0.224,0.387 0.163,0.876 -0.149,1.197 -0.938,0.966 -1.628,2.16 -1.995,3.455 -0.122,0.43 -0.515,0.727 -0.962,0.727 h -1.851 v 2.995 h 1.854 c 1.247,0.059 1.092,1.831 1.737,2.581 0.327,0.937 1.933,1.67 1.367,2.795 0,0 -0.928,1.606 -0.928,1.606 z"
           id="path16729" />
      </g>
      <g
         id="g16737">
        <path
           d="m 23.049,18.481 c -5.724,-0.286 -4.66,-8.719 0.985,-7.534 4.284,1.191 3.447,7.491 -0.985,7.534 z m -0.01,-5.665 c -3.081,0.226 -1.867,4.766 0.919,3.42 1.62,-0.89 0.902,-3.467 -0.919,-3.42 z"
           id="path16733" />
        <path
           d="m 26.161,25.298 c -0.867,0.038 -1.182,-1.183 -1.719,-1.976 -0.924,0.149 -1.873,0.151 -2.799,0 l -0.852,1.476 c -0.277,0.477 -0.887,0.642 -1.366,0.366 l -3.68,-2.125 c -0.479,-0.276 -0.642,-0.888 -0.366,-1.366 l 0.853,-1.476 c -0.611,-0.744 -1.06,-1.523 -1.399,-2.424 h -1.705 c -0.552,0 -1,-0.448 -1,-1 v -4.249 c 0,-0.552 0.448,-1 1,-1 h 1.704 C 15.166,10.648 15.64,9.827 16.231,9.1 L 15.379,7.624 C 15.103,7.145 15.267,6.534 15.745,6.258 l 3.68,-2.125 c 0.478,-0.276 1.089,-0.112 1.366,0.366 l 0.852,1.476 c 0.926,-0.148 1.874,-0.149 2.799,0 l 0.852,-1.476 c 0.261,-0.47 0.904,-0.644 1.366,-0.366 0,0 3.68,2.124 3.68,2.124 0.478,0.276 0.642,0.888 0.366,1.366 L 29.853,9.1 c 0.61,0.742 1.061,1.524 1.399,2.423 h 1.705 c 0.552,0 1,0.448 1,1 v 4.25 c 0,0.552 -0.448,1 -1,1 h -1.704 c -0.334,0.876 -0.808,1.696 -1.399,2.423 l 0.852,1.476 c 0.276,0.479 0.112,1.09 -0.366,1.366 -0.282,0.105 -3.94,2.427 -4.179,2.258 z m -8.55,-3.491 1.948,1.125 0.712,-1.233 c 0.224,-0.387 0.677,-0.579 1.111,-0.47 1.086,0.275 2.234,0.273 3.32,0 1.027,-0.28 1.389,1.071 1.824,1.704 l 1.948,-1.125 -0.713,-1.234 c -0.224,-0.388 -0.163,-0.876 0.149,-1.197 0.781,-0.803 1.355,-1.797 1.661,-2.875 0.282,-1.033 1.612,-0.664 2.387,-0.727 v -2.25 H 30.53 c -1.165,-0.026 -1.049,-1.578 -1.607,-2.27 -0.322,-0.83 -1.723,-1.504 -1.164,-2.526 0,0 0.714,-1.237 0.714,-1.237 L 26.525,6.367 25.813,7.601 c -0.223,0.388 -0.675,0.579 -1.111,0.47 -1.086,-0.275 -2.235,-0.275 -3.32,0 -1.033,0.274 -1.385,-1.067 -1.824,-1.704 l -1.948,1.125 0.713,1.234 c 0.224,0.388 0.163,0.876 -0.149,1.197 -0.781,0.803 -1.355,1.797 -1.661,2.875 -0.282,1.033 -1.612,0.664 -2.387,0.727 v 2.249 h 1.428 c 1.165,0.026 1.049,1.579 1.607,2.271 0.32,0.828 1.723,1.504 1.164,2.526 0,0 -0.714,1.236 -0.714,1.236 z"
           id="path16735" />
      </g>
    </g>
  </g>
</svg>
