<?xml version="1.0" encoding="UTF-8" standalone="no"?>
<svg
   width="16"
   height="16"
   version="1.1"
   id="svg1"
   sodipodi:docname="sub-cut-next.svg"
   inkscape:version="1.3.2 (091e20ef0f, 2023-11-25)"
   xmlns:inkscape="http://www.inkscape.org/namespaces/inkscape"
   xmlns:sodipodi="http://sodipodi.sourceforge.net/DTD/sodipodi-0.dtd"
   xmlns="http://www.w3.org/2000/svg"
   xmlns:svg="http://www.w3.org/2000/svg">
  <defs
     id="defs1" />
  <sodipodi:namedview
     id="namedview1"
     pagecolor="#ffffff"
     bordercolor="#000000"
     borderopacity="0.25"
     inkscape:showpageshadow="2"
     inkscape:pageopacity="0.0"
     inkscape:pagecheckerboard="0"
     inkscape:deskcolor="#d1d1d1"
     inkscape:zoom="75.75"
     inkscape:cx="8"
     inkscape:cy="8"
     inkscape:window-width="2518"
     inkscape:window-height="1416"
     inkscape:window-x="42"
     inkscape:window-y="0"
     inkscape:window-maximized="1"
     inkscape:current-layer="svg1" />
  <path
     style="fill:#ffffff"
     d="M 13,13.5 A 1.5,1.5 0 0 1 11.5,15 1.5,1.5 0 0 1 10,13.5 1.5,1.5 0 0 1 11.5,12 1.5,1.5 0 0 1 13,13.5 Z M 13,6 6,11 V 8 H 2 V 4 H 6 V 1 Z M 9,13.5 A 1.5,1.5 0 0 1 7.5,15 1.5,1.5 0 0 1 6,13.5 1.5,1.5 0 0 1 7.5,12 1.5,1.5 0 0 1 9,13.5 Z m -4,0 A 1.5,1.5 0 0 1 3.5,15 1.5,1.5 0 0 1 2,13.5 1.5,1.5 0 0 1 3.5,12 1.5,1.5 0 0 1 5,13.5 Z"
     id="path1" />
</svg>
