<?xml version="1.0" encoding="UTF-8" standalone="no"?>
<!-- Uploaded to: SVG Repo, www.svgrepo.com, Transformed by: SVG Repo Mixer Tools -->

<svg
   fill="#ffffff"
   width="800px"
   height="800px"
   viewBox="0 0 24 24"
   id="Layer_1"
   data-name="Layer 1"
   version="1.1"
   sodipodi:docname="time-forward.svg"
   inkscape:version="1.3.2 (091e20ef0f, 2023-11-25)"
   xmlns:inkscape="http://www.inkscape.org/namespaces/inkscape"
   xmlns:sodipodi="http://sodipodi.sourceforge.net/DTD/sodipodi-0.dtd"
   xmlns="http://www.w3.org/2000/svg"
   xmlns:svg="http://www.w3.org/2000/svg">
  <defs
     id="defs1" />
  <sodipodi:namedview
     id="namedview1"
     pagecolor="#ffffff"
     bordercolor="#000000"
     borderopacity="0.25"
     inkscape:showpageshadow="2"
     inkscape:pageopacity="0.0"
     inkscape:pagecheckerboard="0"
     inkscape:deskcolor="#d1d1d1"
     inkscape:zoom="1.515"
     inkscape:cx="400"
     inkscape:cy="331.35314"
     inkscape:window-width="2518"
     inkscape:window-height="1416"
     inkscape:window-x="42"
     inkscape:window-y="0"
     inkscape:window-maximized="1"
     inkscape:current-layer="Layer_1" />
  <g
     id="SVGRepo_bgCarrier"
     stroke-width="0"
     style="fill:#000000" />
  <g
     id="SVGRepo_tracerCarrier"
     stroke-linecap="round"
     stroke-linejoin="round"
     style="fill:#000000" />
  <g
     id="SVGRepo_iconCarrier"
     style="fill:#ffffff">
    <path
       style="fill:#ffffff"
       d="m 12.947712,16.647715 a 1,1 0 0 0 1,-1 v -5 a 1,1 0 0 0 -0.293,-0.7070003 l -3,-3.0000002 a 1,1 0 0 0 -1.414,1.4140002 l 2.707,2.7070003 v 4.586 a 1,1 0 0 0 1,1 z"
       id="path2" />
    <path
       style="fill:#ffffff"
       d="M 23,11 A 1,1 0 0 0 22,12 10.034,10.034 0 1 1 19.1,4.979 0.862,0.862 0 0 1 19,5 h -3 a 1,1 0 0 0 0,2 h 3 A 3,3 0 0 0 22,4 V 1 A 1,1 0 0 0 20,1 V 3.065 A 11.994,11.994 0 1 0 24,12 1,1 0 0 0 23,11 Z"
       id="path1" />
  </g>
</svg>
