<?xml version="1.0" encoding="UTF-8" standalone="no"?>
<!-- Uploaded to: SVG Repo, www.svgrepo.com, Generator: SVG Repo Mixer Tools -->

<svg
   fill="#000000"
   width="800px"
   height="800px"
   viewBox="0 0 24 24"
   id="Layer_1"
   data-name="Layer 1"
   version="1.1"
   sodipodi:docname="time-delete-backward.svg"
   inkscape:version="1.3.2 (091e20ef0f, 2023-11-25)"
   xmlns:inkscape="http://www.inkscape.org/namespaces/inkscape"
   xmlns:sodipodi="http://sodipodi.sourceforge.net/DTD/sodipodi-0.dtd"
   xmlns="http://www.w3.org/2000/svg"
   xmlns:svg="http://www.w3.org/2000/svg">
  <defs
     id="defs1" />
  <sodipodi:namedview
     id="namedview1"
     pagecolor="#ffffff"
     bordercolor="#000000"
     borderopacity="0.25"
     inkscape:showpageshadow="2"
     inkscape:pageopacity="0.0"
     inkscape:pagecheckerboard="0"
     inkscape:deskcolor="#d1d1d1"
     inkscape:zoom="1.515"
     inkscape:cx="400"
     inkscape:cy="400"
     inkscape:window-width="2518"
     inkscape:window-height="1416"
     inkscape:window-x="42"
     inkscape:window-y="0"
     inkscape:window-maximized="1"
     inkscape:current-layer="Layer_1" />
  <path
     d="m 12.48,17.572288 a 1,1 0 0 1 -1,-1 v -4.586 L 8.7730001,9.2792881 a 1,1 0 1 1 1.4139999,-1.414 l 3,2.9999999 a 1,1 0 0 1 0.293,0.707 v 5 a 1,1 0 0 1 -1,1 z"
     id="path3"
     style="fill:#ffffff" />
  <path
     d="M 12,22 A 10,10 0 1 0 2,12 1,1 0 0 1 0,12 12,12 0 1 1 12,24 1,1 0 0 1 12,22 Z"
     id="path2"
     style="fill:#ffffff" />
  <path
     d="m 8.707,15.293 a 1,1 0 0 0 -1.414,0 L 4.5,18.086 1.707,15.293 A 1,1 0 0 0 0.293,16.707 L 3.086,19.5 0.293,22.293 a 1,1 0 1 0 1.414,1.414 L 4.5,20.914 7.293,23.707 A 1,1 0 0 0 8.707,22.293 L 5.914,19.5 8.707,16.707 a 1,1 0 0 0 0,-1.414 z"
     id="path1"
     style="fill:#ffffff" />
</svg>
