<?xml version="1.0" encoding="UTF-8" standalone="no"?>
<!-- Created with Inkscape (http://www.inkscape.org/) -->

<svg
   width="92.0px"
   height="92.0px"
   viewBox="0 0 92.0 92.0"
   version="1.1"
   id="SVGRoot"
   sodipodi:docname="video.svg"
   inkscape:version="1.2.2 (b0a8486541, 2022-12-01)"
   xmlns:inkscape="http://www.inkscape.org/namespaces/inkscape"
   xmlns:sodipodi="http://sodipodi.sourceforge.net/DTD/sodipodi-0.dtd"
   xmlns="http://www.w3.org/2000/svg"
   xmlns:svg="http://www.w3.org/2000/svg">
  <sodipodi:namedview
     id="namedview627"
     pagecolor="#363636"
     bordercolor="#000000"
     borderopacity="0.25"
     inkscape:showpageshadow="2"
     inkscape:pageopacity="0"
     inkscape:pagecheckerboard="0"
     inkscape:deskcolor="#272727"
     showgrid="false"
     inkscape:zoom="8.076087"
     inkscape:cx="46"
     inkscape:cy="46"
     inkscape:window-width="2518"
     inkscape:window-height="1416"
     inkscape:window-x="42"
     inkscape:window-y="0"
     inkscape:window-maximized="1"
     inkscape:current-layer="SVGRoot" />
  <defs
     id="defs12170" />
  <g
     id="layer1"
     style="fill:#ffffff;stroke:#ffffff">
    <path
       class="cls-1"
       d="M 84.79613,69.104565 70.3564,56.379735 v -20.7606 l 14.43973,-12.71915 z m -18.457584,-0.50536 a 7.7274482,9.2236553 0 0 1 -7.716031,9.21457 H 14.920854 a 7.7293511,9.2259266 0 0 1 -7.7245949,-9.21457 v -45.19841 a 7.7293511,9.2259266 0 0 1 7.7245949,-9.214571 h 43.703564 a 7.7264968,9.2225197 0 0 1 7.716031,9.214571 v 45.19841 z M 87.715092,16.019144 a 2.0055973,2.3939258 0 0 0 -2.098837,0.210093 L 70.3564,29.664975 v -6.26418 A 11.745303,14.019456 0 0 0 58.624418,9.394965 H 14.920854 A 11.746254,14.020592 0 0 0 3.186016,23.400795 v 45.19841 a 11.746254,14.020592 0 0 0 11.734838,14.00583 H 58.624418 A 11.745303,14.019456 0 0 0 70.3564,68.599205 v -6.26418 l 15.259855,13.44142 a 1.9894231,2.37462 0 0 0 1.19118,0.46675 2.0465084,2.4427583 0 0 0 0.907657,-0.25552 2.0160629,2.4064178 0 0 0 1.098892,-2.14068 V 18.151875 A 2.0094029,2.3984684 0 0 0 87.715092,16.019144 Z M 30.353868,62.012505 48.540297,46.000005 30.353868,29.987505 Z M 53.109025,44.069415 29.540402,23.309945 a 2.0113058,2.4007396 0 0 0 -3.203437,1.93059 v 41.52007 a 2.0113058,2.4007396 0 0 0 3.203437,1.93059 l 23.568623,-20.76061 a 2.0132086,2.4030109 0 0 0 0,-3.86117 z"
       id="path8"
       style="fill-rule:evenodd;stroke-width:1.03945;fill:#ffffff;stroke:#ffffff" />
  </g>
</svg>
